<?xml version="1.0" encoding="UTF-8"?>
<svg width="256px" height="256px" viewBox="0 0 256 256" version="1.1" xmlns="http://www.w3.org/2000/svg">
    <g>
        <path d="M128,0 C198.692448,0 256,57.307552 256,128 C256,198.692448 198.692448,256 128,256 C57.307552,256 0,198.692448 0,128 C0,57.307552 57.307552,0 128,0 Z" fill="#2496ED"/>
        <path d="M180,115 C180,111.686292 177.313708,109 174,109 L154,109 C150.686292,109 148,111.686292 148,115 L148,135 C148,138.313708 150.686292,141 154,141 L174,141 C177.313708,141 180,138.313708 180,135 L180,115 Z M140,115 C140,111.686292 137.313708,109 134,109 L114,109 C110.686292,109 108,111.686292 108,115 L108,135 C108,138.313708 110.686292,141 114,141 L134,141 C137.313708,141 140,138.313708 140,135 L140,115 Z M100,115 C100,111.686292 97.3137085,109 94,109 L74,109 C70.6862915,109 68,111.686292 68,115 L68,135 C68,138.313708 70.6862915,141 74,141 L94,141 C97.3137085,141 100,138.313708 100,135 L100,115 Z M180,75 C180,71.6862915 177.313708,69 174,69 L154,69 C150.686292,69 148,71.6862915 148,75 L148,95 C148,98.3137085 150.686292,101 154,101 L174,101 C177.313708,101 180,98.3137085 180,95 L180,75 Z M140,75 C140,71.6862915 137.313708,69 134,69 L114,69 C110.686292,69 108,71.6862915 108,75 L108,95 C108,98.3137085 110.686292,101 114,101 L134,101 C137.313708,101 140,98.3137085 140,95 L140,75 Z" fill="#FFFFFF"/>
        <path d="M188,155 C188,151.686292 185.313708,149 182,149 L74,149 C70.6862915,149 68,151.686292 68,155 L68,175 C68,178.313708 70.6862915,181 74,181 L182,181 C185.313708,181 188,178.313708 188,175 L188,155 Z" fill="#FFFFFF"/>
    </g>
</svg>
