<?xml version="1.0" encoding="UTF-8"?>
<svg width="256px" height="256px" viewBox="0 0 256 256" version="1.1" xmlns="http://www.w3.org/2000/svg">
    <g>
        <path d="M251.172245,116.593517 L139.398454,4.82845302 C132.966146,-1.60948434 122.563329,-1.60948434 116.131021,4.82845302 L92.8753863,28.0841153 L122.515197,57.7238561 C129.464353,55.7340101 137.153542,57.1568774 142.95341,62.9567454 C148.773071,68.7776135 150.195935,76.4993861 148.175797,83.4640127 L176.872639,112.160855 C183.837266,110.140717 191.559039,111.56358 197.378699,117.384449 C205.303808,125.309558 205.303808,138.054544 197.378699,145.979653 C189.45359,153.904762 176.708604,153.904762 168.783495,145.979653 C162.569856,139.766014 161.121898,130.621437 164.285807,123.021277 L137.770621,96.5061109 L137.770621,165.138778 C139.831319,166.147584 141.739938,167.548177 143.435857,169.244097 C151.360966,177.169206 151.360966,189.914192 143.435857,197.839301 C135.510748,205.76441 122.765762,205.76441 114.840653,197.839301 C106.915544,189.914192 106.915544,177.169206 114.840653,169.244097 C116.860939,167.223811 119.239423,165.722825 121.789145,164.823669 L121.789145,94.9468917 C119.23944,94.0477346 116.86093,92.5467492 114.840653,90.5264625 C108.567404,84.2532138 107.148927,75.0316434 110.40246,67.4106114 L81.1892286,38.1973934 L4.82897672,114.557646 C-1.60932239,120.995953 -1.60932239,131.398771 4.82897672,137.831078 L116.602768,249.604942 C123.035076,256.04288 133.437893,256.04288 139.870201,249.604942 L251.172245,138.302898 C257.60455,131.870591 257.60455,121.467774 251.172245,115.035466" fill="#DE4C36"></path>
    </g>
</svg>
