<?xml version="1.0" encoding="UTF-8"?>
<svg width="256px" height="256px" viewBox="0 0 256 256" version="1.1" xmlns="http://www.w3.org/2000/svg">
    <g>
        <path d="M128,0 C198.692448,0 256,57.307552 256,128 C256,198.692448 198.692448,256 128,256 C57.307552,256 0,198.692448 0,128 C0,57.307552 57.307552,0 128,0 Z" fill="#4B4B4B"/>
        <path d="M128,32 C180.601058,32 223.098942,74.497884 223.098942,127.098942 C223.098942,179.7 180.601058,222.197884 128,222.197884 C75.398942,222.197884 32.901058,179.7 32.901058,127.098942 C32.901058,74.497884 75.398942,32 128,32 Z" fill="#FFFFFF"/>
        <path d="M128,45.866667 C172.977778,45.866667 209.233333,82.122222 209.233333,127.1 C209.233333,172.077778 172.977778,208.333333 128,208.333333 C83.022222,208.333333 46.766667,172.077778 46.766667,127.1 C46.766667,82.122222 83.022222,45.866667 128,45.866667 Z" fill="#4B4B4B"/>
        <path d="M128,64 C163.346667,64 192,92.653333 192,128 C192,163.346667 163.346667,192 128,192 C92.653333,192 64,163.346667 64,128 C64,92.653333 92.653333,64 128,64 Z" fill="#FFFFFF"/>
        <path d="M128,85.333333 C151.466667,85.333333 170.666667,104.533333 170.666667,128 C170.666667,151.466667 151.466667,170.666667 128,170.666667 C104.533333,170.666667 85.333333,151.466667 85.333333,128 C85.333333,104.533333 104.533333,85.333333 128,85.333333 Z" fill="#4B4B4B"/>
    </g>
</svg>
