<?xml version="1.0" encoding="UTF-8"?>
<svg width="256px" height="256px" viewBox="0 0 256 256" version="1.1" xmlns="http://www.w3.org/2000/svg">
    <g>
        <path d="M128,0 C198.692448,0 256,57.307552 256,128 C256,198.692448 198.692448,256 128,256 C57.307552,256 0,198.692448 0,128 C0,57.307552 57.307552,0 128,0 Z" fill="#C71A36"/>
        <path d="M76,50 L180,50 C186.627417,50 192,55.372583 192,62 L192,194 C192,200.627417 186.627417,206 180,206 L76,206 C69.372583,206 64,200.627417 64,194 L64,62 C64,55.372583 69.372583,50 76,50 Z" fill="#FFFFFF"/>
        <path d="M128,70 C150.09139,70 168,87.90861 168,110 C168,132.09139 150.09139,150 128,150 C105.90861,150 88,132.09139 88,110 C88,87.90861 105.90861,70 128,70 Z" fill="#C71A36"/>
        <path d="M128,170 C150.09139,170 168,173.90861 168,196 L88,196 C88,173.90861 105.90861,170 128,170 Z" fill="#C71A36"/>
    </g>
</svg>
