<?xml version="1.0" encoding="UTF-8"?>
<svg width="256px" height="256px" viewBox="0 0 256 256" version="1.1" xmlns="http://www.w3.org/2000/svg">
    <g>
        <path d="M145.659,0 C133.086,0 123.128,19.042 123.128,42.517 C123.128,65.992 133.086,85.034 145.659,85.034 C158.232,85.034 168.19,65.992 168.19,42.517 C168.19,19.042 158.232,0 145.659,0" fill="#599636"/>
        <path d="M145.66,92 C133.087,92 123.129,111.042 123.129,134.517 C123.129,157.992 133.087,177.034 145.66,177.034 C158.233,177.034 168.191,157.992 168.191,134.517 C168.191,111.042 158.233,92 145.66,92" fill="#6CAC48"/>
        <path d="M145.66,184 C133.087,184 123.129,203.042 123.129,226.517 C123.129,249.992 133.087,269.034 145.66,269.034 C158.233,269.034 168.191,249.992 168.191,226.517 C168.191,203.042 158.233,184 145.66,184" fill="#4B4B4B"/>
    </g>
</svg>
