<?xml version="1.0" encoding="UTF-8"?>
<svg width="256px" height="256px" viewBox="0 0 256 256" version="1.1" xmlns="http://www.w3.org/2000/svg">
    <g>
        <path d="M255.007,158.087 C254.768,156.581 254.362,155.119 253.804,153.703 C252.22,149.455 249.726,145.631 246.459,142.364 C239.158,135.063 229.158,130.961 218.592,130.961 C215.534,130.961 212.476,131.367 209.507,132.134 C203.706,133.667 198.208,136.476 193.307,140.229 C192.677,140.724 191.958,141.085 191.194,141.401 C190.745,141.491 190.297,141.536 189.848,141.536 C188.386,141.536 186.968,141.085 185.775,140.229 C184.537,139.328 183.568,138.156 182.914,136.813 C180.555,132.743 179.318,128.226 179.318,123.619 C179.318,120.247 180.015,116.919 181.364,113.816 C183.028,110.084 185.64,106.803 188.924,104.219 C193.756,100.376 199.445,97.7 205.485,96.4318 C211.524,95.1636 217.743,95.2994 223.737,96.8327 C228.233,98.0101 232.504,99.9513 236.324,102.58 C240.144,105.209 243.457,108.475 246.099,112.233 C247.336,114.095 248.395,116.102 249.229,118.199 C250.108,120.428 250.738,122.747 251.099,125.111 C251.684,128.935 251.684,132.834 251.099,136.657 C250.603,139.283 249.814,141.864 248.756,144.31 C248.17,145.676 247.471,146.983 246.684,148.245 C246.235,148.919 245.742,149.549 245.249,150.179 C244.89,150.628 244.486,151.032 244.082,151.436 C243.679,151.84 243.231,152.198 242.782,152.557 C242.378,152.871 241.975,153.185 241.526,153.454 C241.167,153.724 240.763,153.993 240.359,154.217 C239.956,154.442 239.507,154.666 239.059,154.89 C238.61,155.115 238.161,155.294 237.713,155.474 C237.264,155.653 236.77,155.833 236.277,155.967 C235.783,156.102 235.29,156.236 234.751,156.371 C234.213,156.505 233.719,156.595 233.181,156.685 C232.642,156.774 232.104,156.864 231.565,156.909 C231.027,156.954 230.488,156.999 229.95,156.999 C229.411,156.999 228.918,156.999 228.38,156.999 C227.841,156.999 227.303,156.954 226.764,156.909 C226.226,156.864 225.687,156.774 225.149,156.685 C224.61,156.595 224.072,156.505 223.533,156.371 C222.995,156.236 222.456,156.102 221.963,155.967 C221.469,155.833 220.976,155.653 220.527,155.474 C220.078,155.294 219.63,155.115 219.181,154.89 C218.732,154.666 218.284,154.442 217.88,154.217 C217.477,153.993 217.073,153.724 216.714,153.454 C216.265,153.185 215.862,152.871 215.458,152.557 C215.009,152.198 214.561,151.84 214.157,151.436 C213.754,151.032 213.35,150.628 212.991,150.179 C212.498,149.549 212.004,148.919 211.556,148.245 C210.768,146.983 210.07,145.676 209.484,144.31 C208.426,141.864 207.637,139.283 207.141,136.657 C206.556,132.834 206.556,128.935 207.141,125.111 C207.502,122.747 208.132,120.428 209.011,118.199 C209.845,116.102 210.904,114.095 212.141,112.233 C214.783,108.475 218.096,105.209 221.916,102.58 C225.736,99.9513 230.007,98.0101 234.503,96.8327 C240.497,95.2994 246.716,95.1636 252.755,96.4318 C258.795,97.7 264.484,100.376 269.316,104.219 C272.6,106.803 275.212,110.084 276.876,113.816 C278.225,116.919 278.922,120.247 278.922,123.619 C278.922,128.226 277.685,132.743 275.326,136.813 C274.672,138.156 273.703,139.328 272.465,140.229 C271.272,141.085 269.854,141.536 268.392,141.536 C267.943,141.536 267.495,141.491 267.046,141.401 C266.282,141.085 265.563,140.724 264.933,140.229 C260.032,136.476 254.534,133.667 248.733,132.134 C245.764,131.367 242.706,130.961 239.648,130.961 C229.082,130.961 219.082,135.063 211.781,142.364 C208.514,145.631 206.02,149.455 204.436,153.703 C203.878,155.119 203.472,156.581 203.233,158.087" fill="#336791" transform="translate(229.120000, 127.517650) rotate(180.000000) translate(-229.120000, -127.517650)"></path>
        <path d="M128,20 C166.383673,20 200.191837,37.244898 222.22449,64.8571429 C205.159184,50.7346939 184.277551,42.2857143 161.697959,42.2857143 C108.963265,42.2857143 66.122449,85.1265306 66.122449,137.857143 C66.122449,190.587755 108.963265,233.428571 161.697959,233.428571 C184.277551,233.428571 205.159184,224.979592 222.22449,210.857143 C200.191837,238.469388 166.383673,255.714286 128,255.714286 C66.122449,255.714286 15.7142857,205.306122 15.7142857,137.857143 C15.7142857,70.4081633 66.122449,20 128,20" fill="#336791"></path>
    </g>
</svg>
