<?xml version="1.0" encoding="UTF-8"?>
<svg width="256px" height="256px" viewBox="0 0 256 256" version="1.1" xmlns="http://www.w3.org/2000/svg" preserveAspectRatio="xMidYMid">
    <g>
        <path d="M128,0 C198.692448,0 256,57.307552 256,128 C256,198.692448 198.692448,256 128,256 C57.307552,256 0,198.692448 0,128 C0,57.307552 57.307552,0 128,0 Z" fill="#2196F3"></path>
        <path d="M128,32 C83.81722,32 48,67.81722 48,112 C48,156.18278 83.81722,192 128,192 C172.18278,192 208,156.18278 208,112 C208,67.81722 172.18278,32 128,32 Z M128,160 C101.490332,160 80,138.509668 80,112 C80,85.490332 101.490332,64 128,64 C154.509668,64 176,85.490332 176,112 C176,138.509668 154.509668,160 128,160 Z" fill="#FFFFFF"></path>
    </g>
</svg>
