<?xml version="1.0" encoding="UTF-8"?>
<svg width="256px" height="256px" viewBox="0 0 256 256" version="1.1" xmlns="http://www.w3.org/2000/svg" preserveAspectRatio="xMidYMid">
    <g>
        <path d="M38.9437824,35.879008 C89.5234256,-13.1200214 170.398168,-11.8028432 219.397197,39.0402357 C224.929346,44.8074857 229.598099,51.3083857 233.272099,58.2793714 C225.557862,50.7856214 215.856891,45.7425357 205.455446,42.8913714 C166.392277,31.8501357 126.657386,46.2998643 99.5157891,76.5528214 C97.4659891,78.7385357 95.4161891,80.9242357 93.6664891,83.3099714 C91.7667891,85.8456714 89.8671033,88.3814 88.1174033,91.0671 C81.9031891,100.105814 76.8133033,110.107243 73.6634891,120.633529 C62.5114891,154.724957 65.0471891,193.938243 91.7667891,222.354243 C89.8670891,219.6685 88.1174033,217.132814 86.5176891,214.447129 C64.4111891,177.69913 61.5600033,134.102529 75.8634891,95.0442357 C78.8646891,86.9454857 82.8402891,79.1714857 87.6174891,72.1106214 C67.1469033,93.1444357 51.7952891,118.897814 43.3844891,147.313814 C30.6828033,189.043957 33.3685033,237.705957 63.6112891,273.737529 C66.1470033,277.138243 68.8327033,280.3888 71.6683891,283.639357 C20.3816891,232.505957 17.8459891,151.481129 64.4111891,97.1300643 C65.8609033,95.1944357 67.4606033,93.4087214 69.0603891,91.6230214 C65.0471891,95.9441357 61.5600033,100.5387 58.3724033,105.283243 C32.5685033,143.529814 27.3287033,192.191814 44.6342891,233.755957 C46.3839891,237.722957 48.2836891,241.539957 50.3334891,245.357129 C-0.557196719,191.824957 -14.3742111,108.744529 38.9437824,35.879008" fill="#68BD45"></path>
    </g>
</svg>
